<svg width="260" height="71" viewBox="0 0 400 71" fill="none" xmlns="http://www.w3.org/2000/svg">
<g clip-path="url(#clip0_20_40)">
<rect opacity="0.3" x="0.0700684" y="69.1357" width="399.605" height="1.38271" fill="white"/>
<path opacity="0.5" d="M16.11 34V23.5H22.605V24.535H17.37V28.195H22.155V29.215H17.37V32.965H22.605V34H16.11ZM24.2973 34V26.56H25.4373L25.5273 27.64C25.7673 27.24 26.0873 26.93 26.4873 26.71C26.8873 26.49 27.3373 26.38 27.8373 26.38C28.4273 26.38 28.9323 26.5 29.3523 26.74C29.7823 26.98 30.1123 27.345 30.3423 27.835C30.6023 27.385 30.9573 27.03 31.4073 26.77C31.8673 26.51 32.3623 26.38 32.8923 26.38C33.7823 26.38 34.4923 26.65 35.0223 27.19C35.5523 27.72 35.8173 28.54 35.8173 29.65V34H34.5723V29.785C34.5723 29.015 34.4173 28.435 34.1073 28.045C33.7973 27.655 33.3523 27.46 32.7723 27.46C32.1723 27.46 31.6723 27.695 31.2723 28.165C30.8823 28.625 30.6873 29.285 30.6873 30.145V34H29.4273V29.785C29.4273 29.015 29.2723 28.435 28.9623 28.045C28.6523 27.655 28.2073 27.46 27.6273 27.46C27.0373 27.46 26.5423 27.695 26.1423 28.165C25.7523 28.625 25.5573 29.285 25.5573 30.145V34H24.2973ZM39.9857 34.18C39.3657 34.18 38.8507 34.075 38.4407 33.865C38.0307 33.655 37.7257 33.375 37.5257 33.025C37.3257 32.675 37.2257 32.295 37.2257 31.885C37.2257 31.125 37.5157 30.54 38.0957 30.13C38.6757 29.72 39.4657 29.515 40.4657 29.515H42.4757V29.425C42.4757 28.775 42.3057 28.285 41.9657 27.955C41.6257 27.615 41.1707 27.445 40.6007 27.445C40.1107 27.445 39.6857 27.57 39.3257 27.82C38.9757 28.06 38.7557 28.415 38.6657 28.885H37.3757C37.4257 28.345 37.6057 27.89 37.9157 27.52C38.2357 27.15 38.6307 26.87 39.1007 26.68C39.5707 26.48 40.0707 26.38 40.6007 26.38C41.6407 26.38 42.4207 26.66 42.9407 27.22C43.4707 27.77 43.7357 28.505 43.7357 29.425V34H42.6107L42.5357 32.665C42.3257 33.085 42.0157 33.445 41.6057 33.745C41.2057 34.035 40.6657 34.18 39.9857 34.18ZM40.1807 33.115C40.6607 33.115 41.0707 32.99 41.4107 32.74C41.7607 32.49 42.0257 32.165 42.2057 31.765C42.3857 31.365 42.4757 30.945 42.4757 30.505V30.49H40.5707C39.8307 30.49 39.3057 30.62 38.9957 30.88C38.6957 31.13 38.5457 31.445 38.5457 31.825C38.5457 32.215 38.6857 32.53 38.9657 32.77C39.2557 33 39.6607 33.115 40.1807 33.115ZM46.1864 24.91C45.9364 24.91 45.7264 24.83 45.5564 24.67C45.3964 24.5 45.3164 24.29 45.3164 24.04C45.3164 23.8 45.3964 23.6 45.5564 23.44C45.7264 23.28 45.9364 23.2 46.1864 23.2C46.4264 23.2 46.6314 23.28 46.8014 23.44C46.9714 23.6 47.0564 23.8 47.0564 24.04C47.0564 24.29 46.9714 24.5 46.8014 24.67C46.6314 24.83 46.4264 24.91 46.1864 24.91ZM45.5564 34V26.56H46.8164V34H45.5564ZM48.8057 34V23.2H50.0657V34H48.8057ZM58.1665 34.18C57.5465 34.18 57.0315 34.075 56.6215 33.865C56.2115 33.655 55.9065 33.375 55.7065 33.025C55.5065 32.675 55.4065 32.295 55.4065 31.885C55.4065 31.125 55.6965 30.54 56.2765 30.13C56.8565 29.72 57.6465 29.515 58.6465 29.515H60.6565V29.425C60.6565 28.775 60.4865 28.285 60.1465 27.955C59.8065 27.615 59.3515 27.445 58.7815 27.445C58.2915 27.445 57.8665 27.57 57.5065 27.82C57.1565 28.06 56.9365 28.415 56.8465 28.885H55.5565C55.6065 28.345 55.7865 27.89 56.0965 27.52C56.4165 27.15 56.8115 26.87 57.2815 26.68C57.7515 26.48 58.2515 26.38 58.7815 26.38C59.8215 26.38 60.6015 26.66 61.1215 27.22C61.6515 27.77 61.9165 28.505 61.9165 29.425V34H60.7915L60.7165 32.665C60.5065 33.085 60.1965 33.445 59.7865 33.745C59.3865 34.035 58.8465 34.18 58.1665 34.18ZM58.3615 33.115C58.8415 33.115 59.2515 32.99 59.5915 32.74C59.9415 32.49 60.2065 32.165 60.3865 31.765C60.5665 31.365 60.6565 30.945 60.6565 30.505V30.49H58.7515C58.0115 30.49 57.4865 30.62 57.1765 30.88C56.8765 31.13 56.7265 31.445 56.7265 31.825C56.7265 32.215 56.8665 32.53 57.1465 32.77C57.4365 33 57.8415 33.115 58.3615 33.115ZM66.9772 34.18C66.2372 34.18 65.5872 34.01 65.0272 33.67C64.4772 33.33 64.0472 32.865 63.7372 32.275C63.4372 31.685 63.2872 31.015 63.2872 30.265C63.2872 29.515 63.4422 28.85 63.7522 28.27C64.0622 27.68 64.4922 27.22 65.0422 26.89C65.5922 26.55 66.2422 26.38 66.9922 26.38C67.6022 26.38 68.1422 26.505 68.6122 26.755C69.0822 27.005 69.4472 27.355 69.7072 27.805V23.2H70.9672V34H69.8272L69.7072 32.77C69.4672 33.13 69.1222 33.455 68.6722 33.745C68.2222 34.035 67.6572 34.18 66.9772 34.18ZM67.1122 33.085C67.6122 33.085 68.0522 32.97 68.4322 32.74C68.8222 32.5 69.1222 32.17 69.3322 31.75C69.5522 31.33 69.6622 30.84 69.6622 30.28C69.6622 29.72 69.5522 29.23 69.3322 28.81C69.1222 28.39 68.8222 28.065 68.4322 27.835C68.0522 27.595 67.6122 27.475 67.1122 27.475C66.6222 27.475 66.1822 27.595 65.7922 27.835C65.4122 28.065 65.1122 28.39 64.8922 28.81C64.6822 29.23 64.5772 29.72 64.5772 30.28C64.5772 30.84 64.6822 31.33 64.8922 31.75C65.1122 32.17 65.4122 32.5 65.7922 32.74C66.1822 32.97 66.6222 33.085 67.1122 33.085ZM76.1916 34.18C75.4516 34.18 74.8016 34.01 74.2416 33.67C73.6916 33.33 73.2616 32.865 72.9516 32.275C72.6516 31.685 72.5016 31.015 72.5016 30.265C72.5016 29.515 72.6566 28.85 72.9666 28.27C73.2766 27.68 73.7066 27.22 74.2566 26.89C74.8066 26.55 75.4566 26.38 76.2066 26.38C76.8166 26.38 77.3566 26.505 77.8266 26.755C78.2966 27.005 78.6616 27.355 78.9216 27.805V23.2H80.1816V34H79.0416L78.9216 32.77C78.6816 33.13 78.3366 33.455 77.8866 33.745C77.4366 34.035 76.8716 34.18 76.1916 34.18ZM76.3266 33.085C76.8266 33.085 77.2666 32.97 77.6466 32.74C78.0366 32.5 78.3366 32.17 78.5466 31.75C78.7666 31.33 78.8766 30.84 78.8766 30.28C78.8766 29.72 78.7666 29.23 78.5466 28.81C78.3366 28.39 78.0366 28.065 77.6466 27.835C77.2666 27.595 76.8266 27.475 76.3266 27.475C75.8366 27.475 75.3966 27.595 75.0066 27.835C74.6266 28.065 74.3266 28.39 74.1066 28.81C73.8966 29.23 73.7916 29.72 73.7916 30.28C73.7916 30.84 73.8966 31.33 74.1066 31.75C74.3266 32.17 74.6266 32.5 75.0066 32.74C75.3966 32.97 75.8366 33.085 76.3266 33.085ZM82.031 34V26.56H83.171L83.276 27.985C83.506 27.495 83.856 27.105 84.326 26.815C84.796 26.525 85.376 26.38 86.066 26.38V27.7H85.721C85.281 27.7 84.876 27.78 84.506 27.94C84.136 28.09 83.841 28.35 83.621 28.72C83.401 29.09 83.291 29.6 83.291 30.25V34H82.031ZM90.3424 34.18C89.6324 34.18 89.0024 34.02 88.4524 33.7C87.9024 33.37 87.4674 32.915 87.1474 32.335C86.8374 31.755 86.6824 31.07 86.6824 30.28C86.6824 29.5 86.8374 28.82 87.1474 28.24C87.4574 27.65 87.8874 27.195 88.4374 26.875C88.9974 26.545 89.6424 26.38 90.3724 26.38C91.0924 26.38 91.7124 26.545 92.2324 26.875C92.7624 27.195 93.1674 27.62 93.4474 28.15C93.7274 28.68 93.8674 29.25 93.8674 29.86C93.8674 29.97 93.8624 30.08 93.8524 30.19C93.8524 30.3 93.8524 30.425 93.8524 30.565H87.9274C87.9574 31.135 88.0874 31.61 88.3174 31.99C88.5574 32.36 88.8524 32.64 89.2024 32.83C89.5624 33.02 89.9424 33.115 90.3424 33.115C90.8624 33.115 91.2974 32.995 91.6474 32.755C91.9974 32.515 92.2524 32.19 92.4124 31.78H93.6574C93.4574 32.47 93.0724 33.045 92.5024 33.505C91.9424 33.955 91.2224 34.18 90.3424 34.18ZM90.3424 27.445C89.7424 27.445 89.2074 27.63 88.7374 28C88.2774 28.36 88.0124 28.89 87.9424 29.59H92.6224C92.5924 28.92 92.3624 28.395 91.9324 28.015C91.5024 27.635 90.9724 27.445 90.3424 27.445ZM98.1829 34.18C97.2929 34.18 96.5529 33.955 95.9629 33.505C95.3729 33.055 95.0279 32.445 94.9279 31.675H96.2179C96.2979 32.065 96.5029 32.405 96.8329 32.695C97.1729 32.975 97.6279 33.115 98.1979 33.115C98.7279 33.115 99.1179 33.005 99.3679 32.785C99.6179 32.555 99.7429 32.285 99.7429 31.975C99.7429 31.525 99.5779 31.225 99.2479 31.075C98.9279 30.925 98.4729 30.79 97.8829 30.67C97.4829 30.59 97.0829 30.475 96.6829 30.325C96.2829 30.175 95.9479 29.965 95.6779 29.695C95.4079 29.415 95.2729 29.05 95.2729 28.6C95.2729 27.95 95.5129 27.42 95.9929 27.01C96.4829 26.59 97.1429 26.38 97.9729 26.38C98.7629 26.38 99.4079 26.58 99.9079 26.98C100.418 27.37 100.713 27.93 100.793 28.66H99.5479C99.4979 28.28 99.3329 27.985 99.0529 27.775C98.7829 27.555 98.4179 27.445 97.9579 27.445C97.5079 27.445 97.1579 27.54 96.9079 27.73C96.6679 27.92 96.5479 28.17 96.5479 28.48C96.5479 28.78 96.7029 29.015 97.0129 29.185C97.3329 29.355 97.7629 29.5 98.3029 29.62C98.7629 29.72 99.1979 29.845 99.6079 29.995C100.028 30.135 100.368 30.35 100.628 30.64C100.898 30.92 101.033 31.33 101.033 31.87C101.043 32.54 100.788 33.095 100.268 33.535C99.7579 33.965 99.0629 34.18 98.1829 34.18ZM105.478 34.18C104.588 34.18 103.848 33.955 103.258 33.505C102.668 33.055 102.323 32.445 102.223 31.675H103.513C103.593 32.065 103.798 32.405 104.128 32.695C104.468 32.975 104.923 33.115 105.493 33.115C106.023 33.115 106.413 33.005 106.663 32.785C106.913 32.555 107.038 32.285 107.038 31.975C107.038 31.525 106.873 31.225 106.543 31.075C106.223 30.925 105.768 30.79 105.178 30.67C104.778 30.59 104.378 30.475 103.978 30.325C103.578 30.175 103.243 29.965 102.973 29.695C102.703 29.415 102.568 29.05 102.568 28.6C102.568 27.95 102.808 27.42 103.288 27.01C103.778 26.59 104.438 26.38 105.268 26.38C106.058 26.38 106.703 26.58 107.203 26.98C107.713 27.37 108.008 27.93 108.088 28.66H106.843C106.793 28.28 106.628 27.985 106.348 27.775C106.078 27.555 105.713 27.445 105.253 27.445C104.803 27.445 104.453 27.54 104.203 27.73C103.963 27.92 103.843 28.17 103.843 28.48C103.843 28.78 103.998 29.015 104.308 29.185C104.628 29.355 105.058 29.5 105.598 29.62C106.058 29.72 106.493 29.845 106.903 29.995C107.323 30.135 107.663 30.35 107.923 30.64C108.193 30.92 108.328 31.33 108.328 31.87C108.338 32.54 108.083 33.095 107.563 33.535C107.053 33.965 106.358 34.18 105.478 34.18Z" fill="white"/>
<path d="M330.539 8.00001C330.539 3.58173 334.121 0 338.539 0H391.675C396.093 0 399.675 3.58172 399.675 8V69.1358H330.539V8.00001Z" fill="#FFA343"/>
<path d="M361.172 40.2831L366.455 35L361.172 29.7169L362.803 28.0864L369.716 35L362.803 41.9136L361.172 40.2831Z" fill="black"/>
</g>
<defs>
<clipPath id="clip0_20_40">
<rect width="399.605" height="70.5185" fill="white" transform="translate(0.0700684)"/>
</clipPath>
</defs>
</svg>
